/* XPM */
static char *result[] = {
/* columns rows colors chars-per-pixel */
"64 64 6 1 ",
"  c #8A0303",
". c #9F3E00",
"X c #C70000",
"o c #18E900",
"O c white",
"+ c None",
/* pixels */
"++++++++++++++++++++++++++++++++++++++++++++++++++++++++++++++++",
"++++++++++++++++++++++++++++++++++++++++++++++++++++++++++++++++",
"++++++++++++++++++++++++++++++++++++++++++++++++++++++++++++++++",
"++++++++++++++++++++++++++++++++++++++++++++++++++++++++++++++++",
"++++++++++++++++++++++++++++++++++++++++++++++++++++++++++++++++",
"++++++++++++++++++++++++++++++++++++++++++++++++++++++++++++++++",
"++++++++++++++++++++++++++++++++++++++++++++++++++++++++++++++++",
"++++++++++++++++++++++++++++++++++++++++++++++++++++++++++++++++",
"++++++++++++++++++++++++++++++++++++++++++++++++++++++++++++++++",
"++++++++++++++++++++++++++++++++++++++++++++++++++++++++++++++++",
"++++++++++++++++++++++++++++++++++++++++++++++++++++++++++++++++",
"++++++++++++++++++++++++++++++++++++++++++++++++++++++++++++++++",
"++++++++++++++++++++++++++++++++++++++++++++++++++++++++++++++++",
"++++++++++++++++++++++++++++++++++++++++++++++++++++++++++++++++",
"++++++++++++++++++++++++++++++++++++++++++++++++++++++++++++++++",
"++++++++++++++++++++++++++++++++++++++++++++++++++++++++++++++++",
"++++++++++++++++++++++++++++++++++++++++++++++++++++++++++++++++",
"++++++++++++++++++++++++++++++++++++++++++++++++++++++++++++++++",
"++++++++++++++++++++++++++++++++++++++++++++++++++++++++++++++++",
"++++++++++++++++++++++++++++++++++++++++++++++++++++++++++++++++",
"++++++++++++++++++++++++++++++++++++++++++++++++++++++++++++++++",
"++++++++++++++++++++++++++++++++++++++++++++++++++++++++++++++++",
"++++++++++++++++++++++++++++++++++++++++++++++++++++++++++++++++",
"++++++++++++++++++++++++++++++++++++++++++++++++++++++++++++++++",
"++++++++++++++++++++++++++++++++++++++++++++++++++++++++++++++++",
"++++++++++++++++++++++++++++++++++++++++++++++++++++++++++++++++",
"++++++++++++++++++++++++++++++++++++++++++++++++++++++++++++++++",
"++++++++++++++++++++++++++++++++++++++++++++++++++++++++++++++++",
"++++++++++++++++++++++++oo+++++++..+++++++++++++++++++++++++++++",
"++++++++++++++++++++++++oooo+++++..+++++++++++++++++++++++++++++",
"+++++++++++++++++++++++++oooo+++..++++++++++++++++++++++++++++++",
"+++++++++++++++++++++++++ooooo++..++++++++++++++++++++++++++++++",
"++++++++++++++++++++++++++ooooo...++++++++++++++++++++++++++++++",
"+++++++++++++++++++++++++++oooo..+++++++++++++++++++++++++++++++",
"+++++++++++++++++++++++++++++oo..+++++++++++++++++++++++++++++++",
"++++++++++++++++++++++XXXXXXXXXXXXXXXXX   ++++++++++++++++++++++",
"++++++++++++++++++++++XXXXXXXXXXXXXXXXX   ++++++++++++++++++++++",
"++++++++++++++++++++++XXXOOOXXXXXXXXXXX   ++++++++++++++++++++++",
"++++++++++++++++++++++XXXOOOXXXXXXXXXXX   ++++++++++++++++++++++",
"++++++++++++++++++++++XXXOOOXXXXXXXXXXX   ++++++++++++++++++++++",
"++++++++++++++++++++++XXXXXXXXXXXXXXXXX   ++++++++++++++++++++++",
"++++++++++++++++++++++XXXXXXXXXXXXXXXXX   ++++++++++++++++++++++",
"++++++++++++++++++++++XXXXXXXXXXXXXXXXX   ++++++++++++++++++++++",
"++++++++++++++++++++++XXXXXXXXXXXXXXXXX   ++++++++++++++++++++++",
"++++++++++++++++++++++XXXXXXXXXXXXXXXXX   ++++++++++++++++++++++",
"++++++++++++++++++++++XXXXXXXXXXXXXXXXX   ++++++++++++++++++++++",
"++++++++++++++++++++++XXXXXXXXXXXXXXXXX   ++++++++++++++++++++++",
"++++++++++++++++++++++XXXXXXXXXXXXXXXXX   ++++++++++++++++++++++",
"++++++++++++++++++++++XXXXXXXXXXXXXXXXX   ++++++++++++++++++++++",
"++++++++++++++++++++++XXXXXXXXXXXXXXXXX   ++++++++++++++++++++++",
"++++++++++++++++++++++XXXXXXXXXXXXXXXXX   ++++++++++++++++++++++",
"++++++++++++++++++++++ oXXXXXXXXXXXXXXX o ++++++++++++++++++++++",
"++++++++++++++++++++++  oXXXXoXXXXXoXX o  ++++++++++++++++++++++",
"+++++++++++++++++++++o  o     oXo o    o  o+++++++++++++++++++++",
"++++++++++++++++++++++o  o     o o    o  o++++++++++++++++++++++",
"++++++++++++++++++++++++++++++++++++++++++++++++++++++++++++++++",
"++++++++++++++++++++++++++++++++++++++++++++++++++++++++++++++++",
"++++++++++++++++++++++++++++++++++++++++++++++++++++++++++++++++",
"++++++++++++++++++++++++++++++++++++++++++++++++++++++++++++++++",
"++++++++++++++++++++++++++++++++++++++++++++++++++++++++++++++++",
"++++++++++++++++++++++++++++++++++++++++++++++++++++++++++++++++",
"++++++++++++++++++++++++++++++++++++++++++++++++++++++++++++++++",
"++++++++++++++++++++++++++++++++++++++++++++++++++++++++++++++++",
"++++++++++++++++++++++++++++++++++++++++++++++++++++++++++++++++"
};
