/* XPM */
static char *_129b87113eb45219de51a3ee490dc0fF0GA726e2QRwPaRd[] = {
/* columns rows colors chars-per-pixel */
"128 128 5 1 ",
"  c None",
". c black",
"X c #782F00",
"o c #B05B24",
"O c white",
/* pixels */
"                                                                                                                                ",
"                                                                                                                                ",
"                                                                                                                                ",
"                                                                                                                                ",
"                                                                                                                                ",
"                                                                                                                                ",
"                                                                                                                                ",
"                                                                                                                                ",
"        ....                                                                                            ....                    ",
"        ....                                                                                            ....                    ",
"        ....                                                                                            ....                    ",
"        ....                                                                                            ....                    ",
"        ........                                                                                    ........                    ",
"        ........                                                                                    ........                    ",
"        ........                                                                                    ........                    ",
"        ........                                                                                    ........                    ",
"            ................XXXXXXXXXXXXXXXXXXXXXXXXXXXXXXXXXXXXXXXXXXXXXXXXXXXXXXXXXXXXXXXX............                        ",
"            ................XXXXXXXXXXXXXXXXXXXXXXXXXXXXXXXXXXXXXXXXXXXXXXXXXXXXXXXXXXXXXXXX............                        ",
"            ................XXXXXXXXXXXXXXXXXXXXXXXXXXXXXXXXXXXXXXXXXXXXXXXXXXXXXXXXXXXXXXXX............                        ",
"            ................XXXXXXXXXXXXXXXXXXXXXXXXXXXXXXXXXXXXXXXXXXXXXXXXXXXXXXXXXXXXXXXX............                        ",
"                ............XXXXooooooooooooooooooooooooooooooooooooooooooooooooXXXXooooXXXX........                            ",
"                ............XXXXooooooooooooooooooooooooooooooooooooooooooooooooXXXXooooXXXX........                            ",
"                ............XXXXooooooooooooooooooooooooooooooooooooooooooooooooXXXXooooXXXX........                            ",
"                ............XXXXooooooooooooooooooooooooooooooooooooooooooooooooXXXXooooXXXX........                            ",
"                            XXXXooooooooooooooooooooooooooooooooooooooooooooooooXXXXooooXXXX                                    ",
"                            XXXXooooooooooooooooooooooooooooooooooooooooooooooooXXXXooooXXXX                                    ",
"                            XXXXooooooooooooooooooooooooooooooooooooooooooooooooXXXXooooXXXX                                    ",
"                            XXXXooooooooooooooooooooooooooooooooooooooooooooooooXXXXooooXXXX                                    ",
"                            XXXXooooooooooooooooooooooooooooooooooooooooooooooooXXXXooooXXXX                                    ",
"                            XXXXooooooooooooooooooooooooooooooooooooooooooooooooXXXXooooXXXX                                    ",
"                            XXXXooooooooooooooooooooooooooooooooooooooooooooooooXXXXooooXXXX                                    ",
"                            XXXXooooooooooooooooooooooooooooooooooooooooooooooooXXXXooooXXXX                                    ",
"                        OOOOOOOOooooooooooooooooooooOOOOOOOOooooooooooooooooooooXXXXXXXXXXXX                                    ",
"                        OOOOOOOOooooooooooooooooooooOOOOOOOOooooooooooooooooooooXXXXXXXXXXXX                                    ",
"                        OOOOOOOOooooooooooooooooooooOOOOOOOOooooooooooooooooooooXXXXXXXXXXXX                                    ",
"                        OOOOOOOOooooooooooooooooooooOOOOOOOOooooooooooooooooooooXXXXXXXXXXXX                                    ",
"                        OOOOOOOOooooooooooooooooooooOOOOOOOOooooooooooooooooooooooooXXXX                                        ",
"                        OOOOOOOOooooooooooooooooooooOOOOOOOOooooooooooooooooooooooooXXXX                                        ",
"                        OOOOOOOOooooooooooooooooooooOOOOOOOOooooooooooooooooooooooooXXXX                                        ",
"                        OOOOOOOOooooooooooooooooooooOOOOOOOOooooooooooooooooooooooooXXXX                                        ",
"                            XXXXooooooooooooooooooooooooooooooooooooooooooooooooooooXXXX                                        ",
"                            XXXXooooooooooooooooooooooooooooooooooooooooooooooooooooXXXX                                        ",
"                            XXXXooooooooooooooooooooooooooooooooooooooooooooooooooooXXXX                                        ",
"                            XXXXooooooooooooooooooooooooooooooooooooooooooooooooooooXXXX                                        ",
"                            XXXXooooooooooooooooXXXXooooooooooooooooooooooooooooooooXXXX                                        ",
"                            XXXXooooooooooooooooXXXXooooooooooooooooooooooooooooooooXXXX                                        ",
"                            XXXXooooooooooooooooXXXXooooooooooooooooooooooooooooooooXXXX                                        ",
"                            XXXXooooooooooooooooXXXXooooooooooooooooooooooooooooooooXXXX                                        ",
"                            XXXXooooooooooooooooXXXXooooooooooooooooooooooooooooooooXXXX                                        ",
"                            XXXXooooooooooooooooXXXXooooooooooooooooooooooooooooooooXXXX                                        ",
"                            XXXXooooooooooooooooXXXXooooooooooooooooooooooooooooooooXXXX                                        ",
"                            XXXXooooooooooooooooXXXXooooooooooooooooooooooooooooooooXXXX                                        ",
"                            XXXX....oooooooo....XXXXooooooooooooooooooooooooooooooooXXXX                    XXXX                ",
"                            XXXX....oooooooo....XXXXooooooooooooooooooooooooooooooooXXXX                    XXXX                ",
"                            XXXX....oooooooo....XXXXooooooooooooooooooooooooooooooooXXXX                    XXXX                ",
"                            XXXX....oooooooo....XXXXooooooooooooooooooooooooooooooooXXXX                    XXXX                ",
"                            XXXXXXXXXXXXXXXXXXXXXXXXooooooooooooooooooooooooooooooooXXXX                    XXXX                ",
"                            XXXXXXXXXXXXXXXXXXXXXXXXooooooooooooooooooooooooooooooooXXXX                    XXXX                ",
"                            XXXXXXXXXXXXXXXXXXXXXXXXooooooooooooooooooooooooooooooooXXXX                    XXXX                ",
"                            XXXXXXXXXXXXXXXXXXXXXXXXooooooooooooooooooooooooooooooooXXXX                    XXXX                ",
"                            XXXXooooooooooooooooooooooooooooooooooooooooooooooooooooXXXX                XXXX                    ",
"                            XXXXooooooooooooooooooooooooooooooooooooooooooooooooooooXXXX                XXXX                    ",
"                            XXXXooooooooooooooooooooooooooooooooooooooooooooooooooooXXXX                XXXX                    ",
"                            XXXXooooooooooooooooooooooooooooooooooooooooooooooooooooXXXX                XXXX                    ",
"                            XXXXooooooooooooooooooooooooooooooooooooooooooooooooooooXXXXXXXXXXXXXXXXXXXX                        ",
"                            XXXXooooooooooooooooooooooooooooooooooooooooooooooooooooXXXXXXXXXXXXXXXXXXXX                        ",
"                            XXXXooooooooooooooooooooooooooooooooooooooooooooooooooooXXXXXXXXXXXXXXXXXXXX                        ",
"                            XXXXooooooooooooooooooooooooooooooooooooooooooooooooooooXXXXXXXXXXXXXXXXXXXX                        ",
"                            XXXXooooooooooooooooooooooooooooooooooooooooooooooooooooooooooooooooXXXX                            ",
"                            XXXXooooooooooooooooooooooooooooooooooooooooooooooooooooooooooooooooXXXX                            ",
"                            XXXXooooooooooooooooooooooooooooooooooooooooooooooooooooooooooooooooXXXX                            ",
"                            XXXXooooooooooooooooooooooooooooooooooooooooooooooooooooooooooooooooXXXX                            ",
"                            XXXXooooooooooooooooooooooooooooooooooooooooooooooooooooooooooooooooXXXX                            ",
"                            XXXXooooooooooooooooooooooooooooooooooooooooooooooooooooooooooooooooXXXX                            ",
"                            XXXXooooooooooooooooooooooooooooooooooooooooooooooooooooooooooooooooXXXX                            ",
"                            XXXXooooooooooooooooooooooooooooooooooooooooooooooooooooooooooooooooXXXX                            ",
"                            XXXXooooooooooooooooooooooooooooooooooooooooooooooooooooooooooooooooXXXX                            ",
"                            XXXXooooooooooooooooooooooooooooooooooooooooooooooooooooooooooooooooXXXX                            ",
"                            XXXXooooooooooooooooooooooooooooooooooooooooooooooooooooooooooooooooXXXX                            ",
"                            XXXXooooooooooooooooooooooooooooooooooooooooooooooooooooooooooooooooXXXX                            ",
"                            XXXXooooooooooooooooooooooooooooooooooooooooooooooooooooooooooooooooXXXX                            ",
"                            XXXXooooooooooooooooooooooooooooooooooooooooooooooooooooooooooooooooXXXX                            ",
"                            XXXXooooooooooooooooooooooooooooooooooooooooooooooooooooooooooooooooXXXX                            ",
"                            XXXXooooooooooooooooooooooooooooooooooooooooooooooooooooooooooooooooXXXX                            ",
"                            XXXXooooooooooooooooooooooooooooooooooooooooooooooooooooooooooooooooXXXX                            ",
"                            XXXXooooooooooooooooooooooooooooooooooooooooooooooooooooooooooooooooXXXX                            ",
"                            XXXXooooooooooooooooooooooooooooooooooooooooooooooooooooooooooooooooXXXX                            ",
"                            XXXXooooooooooooooooooooooooooooooooooooooooooooooooooooooooooooooooXXXX                            ",
"                            XXXXooooXXXXooooooooooooXXXXooooXXXXooooooooooooooooooooooooooooooooXXXX                            ",
"                            XXXXooooXXXXooooooooooooXXXXooooXXXXooooooooooooooooooooooooooooooooXXXX                            ",
"                            XXXXooooXXXXooooooooooooXXXXooooXXXXooooooooooooooooooooooooooooooooXXXX                            ",
"                            XXXXooooXXXXooooooooooooXXXXooooXXXXooooooooooooooooooooooooooooooooXXXX                            ",
"                            XXXXooooXXXXooooooooooooXXXXooooXXXXooooooooooooooooooooooooooooooooXXXX                            ",
"                            XXXXooooXXXXooooooooooooXXXXooooXXXXooooooooooooooooooooooooooooooooXXXX                            ",
"                            XXXXooooXXXXooooooooooooXXXXooooXXXXooooooooooooooooooooooooooooooooXXXX                            ",
"                            XXXXooooXXXXooooooooooooXXXXooooXXXXooooooooooooooooooooooooooooooooXXXX                            ",
"                            XXXXooooXXXXooooooooooooXXXXooooXXXXooooooooooooooooooooooooooooooooXXXX                            ",
"                            XXXXooooXXXXooooooooooooXXXXooooXXXXooooooooooooooooooooooooooooooooXXXX                            ",
"                            XXXXooooXXXXooooooooooooXXXXooooXXXXooooooooooooooooooooooooooooooooXXXX                            ",
"                            XXXXooooXXXXooooooooooooXXXXooooXXXXooooooooooooooooooooooooooooooooXXXX                            ",
"                            XXXXooooXXXXXXXXXXXXXXXXXXXXooooXXXXXXXXXXXXXXXXXXXXXXXXXXXXXXXXXXXXXXXX                            ",
"                            XXXXooooXXXXXXXXXXXXXXXXXXXXooooXXXXXXXXXXXXXXXXXXXXXXXXXXXXXXXXXXXXXXXX                            ",
"                            XXXXooooXXXXXXXXXXXXXXXXXXXXooooXXXXXXXXXXXXXXXXXXXXXXXXXXXXXXXXXXXXXXXX                            ",
"                            XXXXooooXXXXXXXXXXXXXXXXXXXXooooXXXXXXXXXXXXXXXXXXXXXXXXXXXXXXXXXXXXXXXX                            ",
"                            XXXXooooXXXX            XXXXooooXXXX        XXXXooooXXXX    XXXXooooXXXX                            ",
"                            XXXXooooXXXX            XXXXooooXXXX        XXXXooooXXXX    XXXXooooXXXX                            ",
"                            XXXXooooXXXX            XXXXooooXXXX        XXXXooooXXXX    XXXXooooXXXX                            ",
"                            XXXXooooXXXX            XXXXooooXXXX        XXXXooooXXXX    XXXXooooXXXX                            ",
"                            XXXXXXXXXXXX            XXXXXXXXXXXX        XXXXXXXXXXXX    XXXXXXXXXXXX                            ",
"                            XXXXXXXXXXXX            XXXXXXXXXXXX        XXXXXXXXXXXX    XXXXXXXXXXXX                            ",
"                            XXXXXXXXXXXX            XXXXXXXXXXXX        XXXXXXXXXXXX    XXXXXXXXXXXX                            ",
"                            XXXXXXXXXXXX            XXXXXXXXXXXX        XXXXXXXXXXXX    XXXXXXXXXXXX                            ",
"                            XXXXXXXXXXXX            XXXXXXXXXXXX        XXXXXXXXXXXX    XXXXXXXXXXXX                            ",
"                            XXXXXXXXXXXX            XXXXXXXXXXXX        XXXXXXXXXXXX    XXXXXXXXXXXX                            ",
"                            XXXXXXXXXXXX            XXXXXXXXXXXX        XXXXXXXXXXXX    XXXXXXXXXXXX                            ",
"                            XXXXXXXXXXXX            XXXXXXXXXXXX        XXXXXXXXXXXX    XXXXXXXXXXXX                            ",
"                                                                                                                                ",
"                                                                                                                                ",
"                                                                                                                                ",
"                                                                                                                                ",
"                                                                                                                                ",
"                                                                                                                                ",
"                                                                                                                                ",
"                                                                                                                                ",
"                                                                                                                                ",
"                                                                                                                                ",
"                                                                                                                                ",
"                                                                                                                                "
};
