/* XPM */
static char *_995a4c5c4ae4e5afc2eac8f4c13db63Z2Ud4OxqGPeElEK4[] = {
/* columns rows colors chars-per-pixel */
"128 128 5 1 ",
"  c None",
". c black",
"X c #782F00",
"o c #B05B24",
"O c white",
/* pixels */
"                                                                                                                                ",
"                                                                                                                                ",
"                                                                                                                                ",
"                                                                                                                                ",
"                                                                                                                                ",
"                                                                                                                                ",
"                                                                                                                                ",
"                                                                                                                                ",
"        ....                                                                                            ....                    ",
"        ....                                                                                            ....                    ",
"        ....                                                                                            ....                    ",
"        ....                                                                                            ....                    ",
"        ........                                                                                    ........                    ",
"        ........                                                                                    ........                    ",
"        ........                                                                                    ........                    ",
"        ........                                                                                    ........                    ",
"            ................XXXXXXXXXXXXXXXXXXXXXXXXXXXXXXXXXXXXXXXXXXXXXXXXXXXXXXXXXXXXXXXX............                        ",
"            ................XXXXXXXXXXXXXXXXXXXXXXXXXXXXXXXXXXXXXXXXXXXXXXXXXXXXXXXXXXXXXXXX............                        ",
"            ................XXXXXXXXXXXXXXXXXXXXXXXXXXXXXXXXXXXXXXXXXXXXXXXXXXXXXXXXXXXXXXXX............                        ",
"            ................XXXXXXXXXXXXXXXXXXXXXXXXXXXXXXXXXXXXXXXXXXXXXXXXXXXXXXXXXXXXXXXX............                        ",
"                ............XXXXooooooooooooooooooooooooooooooooooooooooooooooooXXXXooooXXXX........                            ",
"                ............XXXXooooooooooooooooooooooooooooooooooooooooooooooooXXXXooooXXXX........                            ",
"                ............XXXXooooooooooooooooooooooooooooooooooooooooooooooooXXXXooooXXXX........                            ",
"                ............XXXXooooooooooooooooooooooooooooooooooooooooooooooooXXXXooooXXXX........                            ",
"                            XXXXooooooooooooooooooooooooooooooooooooooooooooooooXXXXooooXXXX                                    ",
"                            XXXXooooooooooooooooooooooooooooooooooooooooooooooooXXXXooooXXXX                                    ",
"                            XXXXooooooooooooooooooooooooooooooooooooooooooooooooXXXXooooXXXX                                    ",
"                            XXXXooooooooooooooooooooooooooooooooooooooooooooooooXXXXooooXXXX                                    ",
"                            XXXXooooooooooooooooooooooooooooooooooooooooooooooooXXXXooooXXXX                                    ",
"                            XXXXooooooooooooooooooooooooooooooooooooooooooooooooXXXXooooXXXX                                    ",
"                            XXXXooooooooooooooooooooooooooooooooooooooooooooooooXXXXooooXXXX                                    ",
"                            XXXXooooooooooooooooooooooooooooooooooooooooooooooooXXXXooooXXXX                                    ",
"                        OOOOOOOOooooooooooooooooooooOOOOOOOOooooooooooooooooooooXXXXXXXXXXXX                                    ",
"                        OOOOOOOOooooooooooooooooooooOOOOOOOOooooooooooooooooooooXXXXXXXXXXXX                                    ",
"                        OOOOOOOOooooooooooooooooooooOOOOOOOOooooooooooooooooooooXXXXXXXXXXXX                                    ",
"                        OOOOOOOOooooooooooooooooooooOOOOOOOOooooooooooooooooooooXXXXXXXXXXXX                                    ",
"                        OOOOOOOOooooooooooooooooooooOOOOOOOOooooooooooooooooooooooooXXXX                                        ",
"                        OOOOOOOOooooooooooooooooooooOOOOOOOOooooooooooooooooooooooooXXXX                                        ",
"                        OOOOOOOOooooooooooooooooooooOOOOOOOOooooooooooooooooooooooooXXXX                                        ",
"                        OOOOOOOOooooooooooooooooooooOOOOOOOOooooooooooooooooooooooooXXXX                                        ",
"                            XXXXooooooooooooooooooooooooooooooooooooooooooooooooooooXXXX                                        ",
"                            XXXXooooooooooooooooooooooooooooooooooooooooooooooooooooXXXX                                        ",
"                            XXXXooooooooooooooooooooooooooooooooooooooooooooooooooooXXXX                                        ",
"                            XXXXooooooooooooooooooooooooooooooooooooooooooooooooooooXXXX                                        ",
"                            XXXXooooooooooooooooXXXXooooooooooooooooooooooooooooooooXXXX                                        ",
"                            XXXXooooooooooooooooXXXXooooooooooooooooooooooooooooooooXXXX                                        ",
"                            XXXXooooooooooooooooXXXXooooooooooooooooooooooooooooooooXXXX                                        ",
"                            XXXXooooooooooooooooXXXXooooooooooooooooooooooooooooooooXXXX                                        ",
"                            XXXXooooooooooooooooXXXXooooooooooooooooooooooooooooooooXXXX                                        ",
"                            XXXXooooooooooooooooXXXXooooooooooooooooooooooooooooooooXXXX                                        ",
"                            XXXXooooooooooooooooXXXXooooooooooooooooooooooooooooooooXXXX                                        ",
"                            XXXXooooooooooooooooXXXXooooooooooooooooooooooooooooooooXXXX                                        ",
"                            XXXX....oooooooo....XXXXooooooooooooooooooooooooooooooooXXXX                                        ",
"                            XXXX....oooooooo....XXXXooooooooooooooooooooooooooooooooXXXX                                        ",
"                            XXXX....oooooooo....XXXXooooooooooooooooooooooooooooooooXXXX                                        ",
"                            XXXX....oooooooo....XXXXooooooooooooooooooooooooooooooooXXXX                                        ",
"                            XXXXXXXXXXXXXXXXXXXXXXXXooooooooooooooooooooooooooooooooXXXX                        XXXX            ",
"                            XXXXXXXXXXXXXXXXXXXXXXXXooooooooooooooooooooooooooooooooXXXX                        XXXX            ",
"                            XXXXXXXXXXXXXXXXXXXXXXXXooooooooooooooooooooooooooooooooXXXX                        XXXX            ",
"                            XXXXXXXXXXXXXXXXXXXXXXXXooooooooooooooooooooooooooooooooXXXX                        XXXX            ",
"                            XXXXooooooooooooooooooooooooooooooooooooooooooooooooooooXXXX                XXXXXXXX                ",
"                            XXXXooooooooooooooooooooooooooooooooooooooooooooooooooooXXXX                XXXXXXXX                ",
"                            XXXXooooooooooooooooooooooooooooooooooooooooooooooooooooXXXX                XXXXXXXX                ",
"                            XXXXooooooooooooooooooooooooooooooooooooooooooooooooooooXXXX                XXXXXXXX                ",
"                            XXXXooooooooooooooooooooooooooooooooooooooooooooooooooooXXXXXXXXXXXXXXXXXXXX                        ",
"                            XXXXooooooooooooooooooooooooooooooooooooooooooooooooooooXXXXXXXXXXXXXXXXXXXX                        ",
"                            XXXXooooooooooooooooooooooooooooooooooooooooooooooooooooXXXXXXXXXXXXXXXXXXXX                        ",
"                            XXXXooooooooooooooooooooooooooooooooooooooooooooooooooooXXXXXXXXXXXXXXXXXXXX                        ",
"                            XXXXooooooooooooooooooooooooooooooooooooooooooooooooooooooooooooooooXXXX                            ",
"                            XXXXooooooooooooooooooooooooooooooooooooooooooooooooooooooooooooooooXXXX                            ",
"                            XXXXooooooooooooooooooooooooooooooooooooooooooooooooooooooooooooooooXXXX                            ",
"                            XXXXooooooooooooooooooooooooooooooooooooooooooooooooooooooooooooooooXXXX                            ",
"                            XXXXooooooooooooooooooooooooooooooooooooooooooooooooooooooooooooooooXXXX                            ",
"                            XXXXooooooooooooooooooooooooooooooooooooooooooooooooooooooooooooooooXXXX                            ",
"                            XXXXooooooooooooooooooooooooooooooooooooooooooooooooooooooooooooooooXXXX                            ",
"                            XXXXooooooooooooooooooooooooooooooooooooooooooooooooooooooooooooooooXXXX                            ",
"                            XXXXooooooooooooooooooooooooooooooooooooooooooooooooooooooooooooooooXXXX                            ",
"                            XXXXooooooooooooooooooooooooooooooooooooooooooooooooooooooooooooooooXXXX                            ",
"                            XXXXooooooooooooooooooooooooooooooooooooooooooooooooooooooooooooooooXXXX                            ",
"                            XXXXooooooooooooooooooooooooooooooooooooooooooooooooooooooooooooooooXXXX                            ",
"                            XXXXooooooooooooooooooooooooooooooooooooooooooooooooooooooooooooooooXXXX                            ",
"                            XXXXooooooooooooooooooooooooooooooooooooooooooooooooooooooooooooooooXXXX                            ",
"                            XXXXooooooooooooooooooooooooooooooooooooooooooooooooooooooooooooooooXXXX                            ",
"                            XXXXooooooooooooooooooooooooooooooooooooooooooooooooooooooooooooooooXXXX                            ",
"                            XXXXooooooooooooooooooooooooooooooooooooooooooooooooooooooooooooooooXXXX                            ",
"                            XXXXooooooooooooooooooooooooooooooooooooooooooooooooooooooooooooooooXXXX                            ",
"                            XXXXooooooooooooooooooooooooooooooooooooooooooooooooooooooooooooooooXXXX                            ",
"                            XXXXooooooooooooooooooooooooooooooooooooooooooooooooooooooooooooooooXXXX                            ",
"                            XXXXooooXXXXooooooooooooXXXXooooXXXXooooooooooooooooooooooooooooooooXXXX                            ",
"                            XXXXooooXXXXooooooooooooXXXXooooXXXXooooooooooooooooooooooooooooooooXXXX                            ",
"                            XXXXooooXXXXooooooooooooXXXXooooXXXXooooooooooooooooooooooooooooooooXXXX                            ",
"                            XXXXooooXXXXooooooooooooXXXXooooXXXXooooooooooooooooooooooooooooooooXXXX                            ",
"                            XXXXooooXXXXooooooooooooXXXXooooXXXXooooooooooooooooooooooooooooooooXXXX                            ",
"                            XXXXooooXXXXooooooooooooXXXXooooXXXXooooooooooooooooooooooooooooooooXXXX                            ",
"                            XXXXooooXXXXooooooooooooXXXXooooXXXXooooooooooooooooooooooooooooooooXXXX                            ",
"                            XXXXooooXXXXooooooooooooXXXXooooXXXXooooooooooooooooooooooooooooooooXXXX                            ",
"                            XXXXooooXXXXooooooooooooXXXXooooXXXXooooooooooooooooooooooooooooooooXXXX                            ",
"                            XXXXooooXXXXooooooooooooXXXXooooXXXXooooooooooooooooooooooooooooooooXXXX                            ",
"                            XXXXooooXXXXooooooooooooXXXXooooXXXXooooooooooooooooooooooooooooooooXXXX                            ",
"                            XXXXooooXXXXooooooooooooXXXXooooXXXXooooooooooooooooooooooooooooooooXXXX                            ",
"                            XXXXooooXXXXXXXXXXXXXXXXXXXXooooXXXXXXXXXXXXXXXXXXXXXXXXXXXXXXXXXXXXXXXX                            ",
"                            XXXXooooXXXXXXXXXXXXXXXXXXXXooooXXXXXXXXXXXXXXXXXXXXXXXXXXXXXXXXXXXXXXXX                            ",
"                            XXXXooooXXXXXXXXXXXXXXXXXXXXooooXXXXXXXXXXXXXXXXXXXXXXXXXXXXXXXXXXXXXXXX                            ",
"                            XXXXooooXXXXXXXXXXXXXXXXXXXXooooXXXXXXXXXXXXXXXXXXXXXXXXXXXXXXXXXXXXXXXX                            ",
"                            XXXXooooXXXX            XXXXooooXXXX        XXXXooooXXXX    XXXXooooXXXX                            ",
"                            XXXXooooXXXX            XXXXooooXXXX        XXXXooooXXXX    XXXXooooXXXX                            ",
"                            XXXXooooXXXX            XXXXooooXXXX        XXXXooooXXXX    XXXXooooXXXX                            ",
"                            XXXXooooXXXX            XXXXooooXXXX        XXXXooooXXXX    XXXXooooXXXX                            ",
"                            XXXXXXXXXXXX            XXXXXXXXXXXX        XXXXXXXXXXXX    XXXXXXXXXXXX                            ",
"                            XXXXXXXXXXXX            XXXXXXXXXXXX        XXXXXXXXXXXX    XXXXXXXXXXXX                            ",
"                            XXXXXXXXXXXX            XXXXXXXXXXXX        XXXXXXXXXXXX    XXXXXXXXXXXX                            ",
"                            XXXXXXXXXXXX            XXXXXXXXXXXX        XXXXXXXXXXXX    XXXXXXXXXXXX                            ",
"                            XXXXXXXXXXXX            XXXXXXXXXXXX        XXXXXXXXXXXX    XXXXXXXXXXXX                            ",
"                            XXXXXXXXXXXX            XXXXXXXXXXXX        XXXXXXXXXXXX    XXXXXXXXXXXX                            ",
"                            XXXXXXXXXXXX            XXXXXXXXXXXX        XXXXXXXXXXXX    XXXXXXXXXXXX                            ",
"                            XXXXXXXXXXXX            XXXXXXXXXXXX        XXXXXXXXXXXX    XXXXXXXXXXXX                            ",
"                                                                                                                                ",
"                                                                                                                                ",
"                                                                                                                                ",
"                                                                                                                                ",
"                                                                                                                                ",
"                                                                                                                                ",
"                                                                                                                                ",
"                                                                                                                                ",
"                                                                                                                                ",
"                                                                                                                                ",
"                                                                                                                                ",
"                                                                                                                                "
};
