/* XPM */
static char *_0e1ce6a8bc04934d53f5583bfda57e1L5oTK8Ywx7YcFfgE[] = {
/* columns rows colors chars-per-pixel */
"64 64 9 1 ",
"  c None",
". c #472300",
"X c #964A00",
"o c #D2CC05",
"O c #F9A556",
"+ c #0788A3",
"@ c #10CCF4",
"# c #FDC188",
"$ c white",
/* pixels */
"                                                                ",
"                                                                ",
"                                                                ",
"                                                                ",
"                oooooooooooooooooooooooooooooooo                ",
"                oooooooooooooooooooooooooooooooo                ",
"                oooooooooooooooooooooooooooooooo                ",
"                oooooooooooooooooooooooooooooooo                ",
"                oooooooooooooooooooooooooooooooo                ",
"                oooooooooooooooooooooooooooooooo                ",
"                oooooooooooooooooooooooooooooooo                ",
"                oooooooooooooooooooooooooooooooo                ",
"                oooooooooooooooooooooooooooooooo                ",
"                oooooooooooooooooooooooooooooooo                ",
"                ooooooOOOOOO####################                ",
"                ooooooOOOOOO####################                ",
"                ooooooOOOOOO####$$$$$$##########$$$$$$          ",
"                ooooooOOOOOO####$$$$$$##########$$$$$$          ",
"                ooooooOOOOOO####$$$$$$##########$$$$$$          ",
"                ooooooOOOOOO####$$$$$$##########$$$$$$          ",
"                ooooooOOOOOO####$$$$$$##########$$$$$$          ",
"                ooooooOOOOOO####$$$$$$##########$$$$$$          ",
"                ooooooOOOOOO####################                ",
"                ooooooOOOOOO####################                ",
"                OOOOOOOOOOOO####################                ",
"                OOOOOOOOOOOO####################                ",
"                OOOOOOOOOOOO####################                ",
"                OOOOOOOOOOOO####################                ",
"                OOOOOOOOOOOO####################                ",
"                OOOOOOOOOOOO####################                ",
"                OOOOOOOOOOOO####################                ",
"                OOOOOOOOOOOO####################                ",
"                OOOOOOOOOOOO####################                ",
"                OOOOOOOOOOOO####################                ",
"                OOOOOOOOOOOO####################                ",
"                OOOOOOOOOOOO####################                ",
"                OOOOOOOOOOOO####################                ",
"                OOOOOOOOOOOO####################                ",
"                OOOOOOOOOOOO####################                ",
"                OOOOOOOOOOOO####################                ",
"                ++++++++++++@@@@@@@@@@@@@@@@@@@@                ",
"                ++++++++++++@@@@@@@@@@@@@@@@@@@@                ",
"                ++++++++++++@@@@@@@@@@@@@@@@@@@@                ",
"                ++++++++++++@@@@@@@@@@@@@@@@@@@@                ",
"                ++++++++++++@@@@@@@@@@@@@@@@@@@@                ",
"                ++++++++++++@@@@@@@@@@@@@@@@@@@@                ",
"                ++++++++++++@@@@@@@@@@@@@@@@@@@@                ",
"                ++++++++++++@@@@@@@@@@@@@@@@@@@@                ",
"                ++++++++++++@@@@@@@@@@@@@@@@@@@@                ",
"                ++++++++++++@@@@@@@@@@@@@@@@@@@@                ",
"                ......                  XXXXXX                  ",
"                ......                  XXXXXX                  ",
"                ......                  XXXXXX                  ",
"                ......                  XXXXXX                  ",
"                ......                  XXXXXX                  ",
"                ......                  XXXXXX                  ",
"                ......                  XXXXXX                  ",
"                ......                  XXXXXX                  ",
"                                                                ",
"                                                                ",
"                                                                ",
"                                                                ",
"                                                                ",
"                                                                "
};
