/* XPM */
static char *_373c45da5e24d65eaf3715a412079486Rsk4bXWbu2GxVbx[] = {
/* columns rows colors chars-per-pixel */
"64 64 9 1 ",
"  c None",
". c #472300",
"X c #964A00",
"o c #D2CC05",
"O c #F9A556",
"+ c #0788A3",
"@ c #10CCF4",
"# c #FDC188",
"$ c white",
/* pixels */
"                                                                ",
"                                                                ",
"                                                                ",
"                                                                ",
"                                                                ",
"                                                                ",
"                oooooooooooooooooooooooooooooooo                ",
"                oooooooooooooooooooooooooooooooo                ",
"                oooooooooooooooooooooooooooooooo                ",
"                oooooooooooooooooooooooooooooooo                ",
"                oooooooooooooooooooooooooooooooo                ",
"                oooooooooooooooooooooooooooooooo                ",
"                oooooooooooooooooooooooooooooooo                ",
"                oooooooooooooooooooooooooooooooo                ",
"                oooooooooooooooooooooooooooooooo                ",
"                oooooooooooooooooooooooooooooooo                ",
"                ooooooOOOOOO####################                ",
"                ooooooOOOOOO####################                ",
"                ooooooOOOOOO####$$$$$$##########$$$$$$          ",
"                ooooooOOOOOO####$$$$$$##########$$$$$$          ",
"                ooooooOOOOOO####$$$$$$##########$$$$$$          ",
"                ooooooOOOOOO####$$$$$$##########$$$$$$          ",
"                ooooooOOOOOO####$$$$$$##########$$$$$$          ",
"                ooooooOOOOOO####$$$$$$##########$$$$$$          ",
"                ooooooOOOOOO####################                ",
"                ooooooOOOOOO####################                ",
"                OOOOOOOOOOOO####################                ",
"                OOOOOOOOOOOO####################                ",
"                OOOOOOOOOOOO####################                ",
"                OOOOOOOOOOOO####################                ",
"                OOOOOOOOOOOO####################                ",
"                OOOOOOOOOOOO####################                ",
"                OOOOOOOOOOOO####################                ",
"                OOOOOOOOOOOO####################                ",
"                OOOOOOOOOOOO####################                ",
"                OOOOOOOOOOOO####################                ",
"                OOOOOOOOOOOO####################                ",
"                OOOOOOOOOOOO####################                ",
"                OOOOOOOOOOOO####################                ",
"                OOOOOOOOOOOO####################                ",
"                OOOOOOOOOOOO####################                ",
"                OOOOOOOOOOOO####################                ",
"                ++++++++++++@@@@@@@@@@@@@@@@@@@@                ",
"                ++++++++++++@@@@@@@@@@@@@@@@@@@@                ",
"                ++++++++++++@@@@@@@@@@@@@@@@@@@@                ",
"                ++++++++++++@@@@@@@@@@@@@@@@@@@@                ",
"                ++++++++++++@@@@@@@@@@@@@@@@@@@@                ",
"                ++++++++++++@@@@@@@@@@@@@@@@@@@@                ",
"                ++++++++++++@@@@@@@@@@@@@@@@@@@@                ",
"                ++++++++++++@@@@@@@@@@@@@@@@@@@@                ",
"                ++++++++++++@@@@@@@@@@@@@@@@@@@@                ",
"                ++++++++++++@@@@@@@@@@@@@@@@@@@@                ",
"                ......                  XXXXXX                  ",
"                ......                  XXXXXX                  ",
"                ......                  XXXXXX                  ",
"                ......                  XXXXXX                  ",
"                ......                  XXXXXX                  ",
"                ......                  XXXXXX                  ",
"                                                                ",
"                                                                ",
"                                                                ",
"                                                                ",
"                                                                ",
"                                                                "
};
