/* XPM */
static char *result[] = {
/* columns rows colors chars-per-pixel */
"64 64 5 1 ",
"  c black",
". c 663300",
"X c #CC6600",
"o c white",
"O c None",
/* pixels */
"OOOOOOOOOOOOOOOOOOOOOOOOOOOOOOOOOOOOOOOOOOOOOOOOOOOOOOOOOOOOOOOO",
"OOOOOOOOOOOOOOOOOOOOOOOOOOOOOOOOOOOOOOOOOOOOOOOOOOOOOOOOOOOOOOOO",
"OOOOOOOOOOOOOOOOOOOOOOOOOOOOOOOOOOOOOOOOOOOOOOOOOOOOOOOOOOOOOOOO",
"OOOOOOOOOOOOOOOOOOOOOOOOOOOOOOOOOOOOOOOOOOOOOOOOOOOOOOOOOOOOOOOO",
"OOOOOOOOOOOOOOOOOOOOOOOOOOOOOOOOOOOOOOOOOOOOOOOOOOOOOOOOOOOOOOOO",
"OOOOOOOOOOOOOOOOOOOOOOOOOOOOOOOOOOOOOOOOOOOOOOOOOOOOOOOOOOOOOOOO",
"OOOOOOOOOOOOOOOOOOOOOOOOOOOOOOOOOOOOOOOOOOOOOOOOOOOOOOOOOOOOOOOO",
"OOOOOOOOOOOOOOOOOOOOOOOOOOOOOOOOOOOOOOOOOOOOOOOOOOOOOOOOOOOOOOOO",
"OOOOOOOOOOOOOOOOOOOOOOOOOOOOOOOOOOOOOOOOOOOOOOOOOOOOOOOOOOOOOOOO",
"OOOOOOOOOOOOOOOOOOOOOOOOOOOOOOOOOOOOOOOOOOOOOOOOOOOOOOOOOOOOOOOO",
"OOOOOOOOOOOOOOOOOOOOOOOOOOOOOOOOOOOOOOOOOOOOOOOOOOOOOOOOOOOOOOOO",
"OOOOOOOOOOOOOOOOOOOOOOOOOOOOOOOOOOOOOOOOOOOOOOOOOOOOOOOOOOOOOOOO",
"OOOOOOOOOOOOOOOOOOOOOOOOOOOOOOOOOOOOOOOOOOOOOOOOOOOOOOOOOOOOOOOO",
"OOOOOOOOOOOOOOOOOOOOOOOOOOOOOOOOOOOOOOOOOOOOOOOOOOOOOOOOOOOOOOOO",
"OOOOOOOOOOOOOOOOOOOOOOOOOOOOOOOOOOOOOOOOOOOOOOOOOOOOOOOOOOOOOOOO",
"OOOOOOOOOOOOOOOOOOOOOOOOOOOOOOOOOOOOOOOOOOOO....OOOOOOOOOOOOOOOO",
"OOOOOOOOOOOOOOOOOOOOOOOOOOOOOOOOOOOOOOOOOOOO.XX.OOOOOOOOOOOOOOOO",
"OOOOOOOOOOOOOOOOOOOOOOOOOOOOOOOOOOOOOOOOOOOO.XX.OOOOOOOOOOOOOOOO",
"OOOOOOOOOOOOOOOOOOOOOOOOOOOOOOOOOOOOOOOOOOOO.XX.OOOOOOOOOOOOOOOO",
"OOOOOOOOOOOOOOOOOOOOOOOOOOOOOOOOOOOOOOOOOOOO.XX.OOOOOOOOOOOOOOOO",
"OOOOOOOOOOOOOOOOOOOOOOOOOOOOOOOOOOOOOOOOOOOO.XX.OOOOOOOOOOOOOOOO",
"OOOOOOOOOOOOOOOOOOOOOOOOOOOOOOOOOOOOOOOOOOOO.XX.OOOOOOOOOOOOOOOO",
"OOOOOOOOOOOOOOOOOOOOOOOOOOOOOOOOOOOOOOOOOOOO.XX.OOOOOOOOOOOOOOOO",
"OOOOOOOOOOOOOOOOOOOOOOOOOOOOOOOOOOOOOOOOOOOO.XX.OOOOOOOOOOOOOOOO",
"OOOOOOOOOOOOOO...............................XX.OOOOOOOOOOOOOOOO",
"OOOOOOOOOOOOOO.XXXXXXXXXXXXX.....XXXXXXXXXXXXXX.OOOOOOOOOOOOOOOO",
"OOOOOOOOOOOOOO.XXXXXXXXXXXXX.....XXXXXXXXXXXXXX.OOOOOOOOOOOOOOOO",
"OOOOOOOOOOOOOO.XXXXXXXXXXXXX.....XXXXXXXXXXXXXX.OOOOOOOOOOOOOOOO",
"OOOOOOOOOOOOoooXXXXXXoooXXXX.....XXXXXXXXXXXXXX.OOOOOOOOOOOOOOOO",
"OOOOOOOOOOOOoooXXXXXXoooXXXX.....XXXXXXXXXXXXXX.OOOOOOOOOOOOOOOO",
"OOOOOOOOOOOOoooXXXXXXoooXXXX.....XXXXXXXXXXXXXX.OOOOOOOOOOOOOOOO",
"OOOOOOOOOOOOOO.XXXXXXXXXXXXX.....XXXXXXXXXXXXXX.OOOOOOOOOOOOOOOO",
"OOOOOOOOOOOOOO.XXXXXXXXXXXXX.....XXXXXXXXXXXXXX.OOOOOOOOOOOOOOOO",
"OOOOOOOOOOOOOO.XX XXXXXXXXXX.....XXXXXXXXXXXXXX.OOOOOOOOOOOOOOOO",
"OOOOOOOOOOOOOO.  X  XXXXXXXX.....XXXXXXXXXXXXXX.OOOOOOOOOOOOOOOO",
"OOOOOOOOOOOOOO.  X  XXXXXXXX.....XXXXXXXXXXXXXX.OOOOOOOOOOOOOOOO",
"OOOOOOOOOOOOOO.XXXXXXXXXXXXXXXXXXXXXXXXXXXXXXXX.OOOOOOOOOOOOOOOO",
"OOOOOOOOOOOOOO.XXXXXXXXXXXXXXXXXXXXXXXXXXXXXXXX.OOOOOOOOOOOOOOOO",
"OOOOOOOOOOOOOO.XXXXXXXXXXXXXXXXXXXXXXXXXXXXXXXX.OOOOOOOOOOOOOOOO",
"OOOOOOOOOOOOOO.XXXXXXXXXXXXXXXXXXXXXXXXXXXXXXXX.OOOOOOOOOOOOOOOO",
"OOOOOOOOOOOOOO.XXXXXXXXXXXXXXXXXXXXXXXXXXXXXXXX.OOOOOOOOOOOOOOOO",
"OOOOOOOOOOOOOO.XXXXXXXXXXXXXXXXXXXXXXXXXXXXXXXX.OOOOOOOOOOOOOOOO",
"OOOOOOOOOOOOOO.XXXXXXXXXXXXXXXXXXXXXXXXXXXXXXXX.OOOOOOOOOOOOOOOO",
"OOOOOOOOOOOOOO.XXXXXXXXXXXXXXXXXXXXXXXXXXXXXXXX.OOOOOOOOOOOOOOOO",
"OOOOOOOOOOOOOO.XXXXXXXXXXXXXXXXXXXXXXXXXXXXXXXX.OOOOOOOOOOOOOOOO",
"OOOOOOOOOOOOOO.XX.XX.XX.XXXXXXXXXXXXXXXXXXXXXXX.OOOOOOOOOOOOOOOO",
"OOOOOOOOOOOOOO.XX.XX.XX.XXXXXXXXXXXXXXXXXXXXXXX.OOOOOOOOOOOOOOOO",
"OOOOOOOOOOOOOO.XX.XX.XX.XXXXXXXXXXXXXXXXXXXXXXX.OOOOOOOOOOOOOOOO",
"OOOOOOOOOOOOOO.XX.XX.XX.XXXXXXXXXXXXXXXXXXXXXXX.OOOOOOOOOOOOOOOO",
"OOOOOOOOOOOOOO.XX.XX.XX.XXXXXXXXXXXXXXXXXXXXXXX.OOOOOOOOOOOOOOOO",
"OOOOOOOOOOOOOO.XX....XX.........................OOOOOOOOOOOOOOOO",
"OOOOOOOOOOOOOO.XX.OO.XX.OOOOOOOO.XX.OOOO.XX.OOOOOOOOOOOOOOOOOOOO",
"OOOOOOOOOOOOOO.XX.OO.XX.OOOOOOOO.XX.OOOO.XX.OOOOOOOOOOOOOOOOOOOO",
"OOOOOOOOOOOOOO....OO....OOOOOOOO....OOOO....OOOOOOOOOOOOOOOOOOOO",
"OOOOOOOOOOOOOOOOOOOOOOOOOOOOOOOOOOOOOOOOOOOOOOOOOOOOOOOOOOOOOOOO",
"OOOOOOOOOOOOOOOOOOOOOOOOOOOOOOOOOOOOOOOOOOOOOOOOOOOOOOOOOOOOOOOO",
"OOOOOOOOOOOOOOOOOOOOOOOOOOOOOOOOOOOOOOOOOOOOOOOOOOOOOOOOOOOOOOOO",
"OOOOOOOOOOOOOOOOOOOOOOOOOOOOOOOOOOOOOOOOOOOOOOOOOOOOOOOOOOOOOOOO",
"OOOOOOOOOOOOOOOOOOOOOOOOOOOOOOOOOOOOOOOOOOOOOOOOOOOOOOOOOOOOOOOO",
"OOOOOOOOOOOOOOOOOOOOOOOOOOOOOOOOOOOOOOOOOOOOOOOOOOOOOOOOOOOOOOOO",
"OOOOOOOOOOOOOOOOOOOOOOOOOOOOOOOOOOOOOOOOOOOOOOOOOOOOOOOOOOOOOOOO",
"OOOOOOOOOOOOOOOOOOOOOOOOOOOOOOOOOOOOOOOOOOOOOOOOOOOOOOOOOOOOOOOO",
"OOOOOOOOOOOOOOOOOOOOOOOOOOOOOOOOOOOOOOOOOOOOOOOOOOOOOOOOOOOOOOOO",
"OOOOOOOOOOOOOOOOOOOOOOOOOOOOOOOOOOOOOOOOOOOOOOOOOOOOOOOOOOOOOOOO"
};
