/* XPM */
static char *_399c3d0759c412fc68006a8db71f97fKt0zntzFewhhlGb1[] = {
/* columns rows colors chars-per-pixel */
"64 64 8 1 ",
"  c None",
". c black",
"X c #EE9D4C",
"o c #5704AA",
"O c #7912E0",
"+ c gray54",
"@ c #ECB986",
"# c white",
/* pixels */
"                                                                ",
"                                                                ",
"              ++++++++++++++++++++++++++++++++++++++            ",
"              ++++++++++++++++++++++++++++++++++++++            ",
"              ++++++++++++++++++++++++++++++++++++++            ",
"              ++++++++++++++++++++++++++++++++++++++            ",
"              ++++++++++++++++++++++++++++++++++++++            ",
"              ++++++++++++++++++++++++++++++++++++++            ",
"              ++++++++++++++++++++++++++++++++++++++            ",
"              ++++++++++++++++++++++++++++++++++++++            ",
"              ++++++++++++++++++++++++++++++++++++++            ",
"              ++++++++++++++++++++++++++++++++++++++            ",
"              ++++++++++++++++++++++++++++++++++++++            ",
"              ++++++++++++++++++++++++++++++++++++++            ",
"              @@@@@@@@@@@@@@@@@@@@@@@@@@XXXX++++++++            ",
"              @@@@@@@@@@@@@@@@@@@@@@@@@@XXXX++++++++            ",
"              @@@@@@@@@@@@@@@@@@@@@@@@@@XXXX++++++++            ",
"         ........................@@@@@@@XXXX++++++++            ",
"         .######.@@@@@@@@.######.@@@@@@@XXXX++++++++            ",
"         .######.@@@@@@@@.######.@@@@@@@XXXX++++++++            ",
"         .######.@@@@@@@@.######.@@@@@@@XXXX++++++++            ",
"         .######.@@@@@@@@.######.@@@@@@@XXXX++++++++            ",
"         .######.@@@@@@@@.######.@@@@@@@XXXXXXXXXXXX            ",
"         .######.@@@@@@@@.######.@@@@@@@XXXXXXXXXXXX            ",
"         ........@@@@@@@@........@@@@@@@XXXXXXXXXXXX            ",
"              @@@@@@@@@@@@@@@@@@@@@@@@@@XXXXXXXXXXXX            ",
"              @@@@@@@@@@@@@@@@@@@@@@@@@@XXXXXXXXXXXX            ",
"              @@@@@@@@@@@@@@@@@@@@@@@@@@XXXXXXXXXXXX            ",
"              @@@@@@@@@@@@@@@@@@@@@@@@@@XXXXXXXXXXXX            ",
"              @@@@@@@@@@@@@@@@@@@@@@@@@@XXXXXXXXXXXX            ",
"              @@@@@@@@@@@@@@@@@@@@@@@@@@XXXXXXXXXXXX            ",
"              @@@@@@@@@@@@@@@@@@@@@@@@@@XXXXXXXXXXXX            ",
"              OOOOOOOOOOOOOOOOOOOOOOOOOOoooooooooooo            ",
"              OOOOOOOOOOOOOOOOOOOOOOOOOOoooooooooooo            ",
"              OOOOOOOOOOOOOOOOOOOOOOOOOOoooooooooooo            ",
"              OOOOOOOOOOOOOOOOOOOOOOOOOOoooooooooooo            ",
"              OOOOOOOOOOOOOOOOOOOOOOOOOOoooooooooooo            ",
"              OOOOOOOOOOOOOOOOOOOOOOOOOOoooooooooooo            ",
"              OOOOOOOOOOOOOOOOOOOOOOOOOOoooooooooooo            ",
"              OOOOOOOOOOOOOOOOOOOOOOOOOOoooooooooooo            ",
"              OOOOOOOOOOOOOOOOOOOOOOOOOOoooooooooooo            ",
"              OOOOOOOOOOOOOOOOOOOOOOOOOOoooooooooooo            ",
"              OOOOOOOOOOOOOOOOOOOOOOOOOOoooooooooooo            ",
"              OOOOOOOOOOOOOOOOOOOOOOOOOOoooooooooooo            ",
"              OOOOOOOOOOOOOOOOOOOOOOOOOOoooooooooooo            ",
"              OOOOOOOOOOOOOOOOOOOOOOOOOOoooooooooooo            ",
"              OOOOOOOOOOOOOOOOOOOOOOOOOOoooooooooooo            ",
"              OOOOOOOOOOOOOOOOOOOOOOOOOOoooooooooooo            ",
"              OOOOOOOOOOOOOOOOOOOOOOOOOOoooooooooooo            ",
"              OOOOOOOOOOOOOOOOOOOOOOOOOOoooooooooooo            ",
"              OOOOOOOOOOOOOOOOOOOOOOOOOOoooooooooooo            ",
"              OOOOOOOOOOOOOOOOOOOOOOOOOOoooooooooooo            ",
"              OOOOOOOOOOOOOOOOOOOOOOOOOOoooooooooooo            ",
"              OOOOOOOOOOOOOOOOOOOOOOOOOOoooooooooooo            ",
"              OOOOOOOOOOOOOOOOOOOOOOOOOOoooooooooooo            ",
"              OOOOOOOOOOOOOOOOOOOOOOOOOOoooooooooooo            ",
"                @@@@@@                        @@@@@@            ",
"                @@@@@@                        @@@@@@            ",
"                @@@@@@                        @@@@@@            ",
"                @@@@@@                        @@@@@@            ",
"                ......                        ......            ",
"                ......                        ......            ",
"                ......                        ......            ",
"                                                                "
};
