/* XPM */
static char *e7be39cd5f27442aa8824f94a3995bbd3R3DwLjT7pDedUAB[] = {
/* columns rows colors chars-per-pixel */
"64 64 3 1 ",
"  c #078100",
". c #47FF00",
"X c #89FF82",
/* pixels */
"................................................................",
"................................................................",
"........................XX......................................",
"........................XX......................................",
"......................XX..XX....................................",
"......................XX..XX....................................",
"........  ......................................................",
"........  ......................................................",
"..  ....  ..................................XX..XX..............",
"..  ....  ..................................XX..XX..............",
"....  ....  ..................................XX................",
"....  ....  ..................................XX................",
"......  ........................................................",
"......  ........................................................",
"................................................................",
"................................................................",
"................................................................",
"................................................................",
"................................................................",
"................................................................",
"..........XX..XX................................  ..............",
"..........XX..XX................................  ..............",
"............XX............................  ....  ..............",
"............XX............................  ....  ..............",
"............................................  ....  ............",
"............................................  ....  ............",
"..............................................  ................",
"..............................................  ................",
"............................XX..XX..............................",
"............................XX..XX..............................",
"..............................XX................................",
"..............................XX................................",
"................................................................",
"................................................................",
"....................................................XX..........",
"....................................................XX..........",
"..................................................XX..XX........",
"..................................................XX..XX........",
"................................................................",
"................................................................",
"............  ..................................................",
"............  ..................................................",
"......  ....  ..................................................",
"......  ....  ..................................................",
"........  ....  ................................................",
"........  ....  ................................................",
"..........  ....................................................",
"..........  ....................................................",
"................................................................",
"................................................................",
"........................XX......................................",
"........................XX......................................",
"......................XX..XX....................................",
"......................XX..XX....................................",
"....................................  ..........XX..XX..........",
"....................................  ..........XX..XX..........",
"..............................  ....  ............XX............",
"..............................  ....  ............XX............",
"....XX..XX......................  ....  ........................",
"....XX..XX......................  ....  ........................",
"......XX..........................  ............................",
"......XX..........................  ............................",
"................................................................",
"................................................................"
};
