/* XPM */
static char *f82a501376d94fb3970eca4ac23204b5E7v2qpnMZxyH3pEr[] = {
/* columns rows colors chars-per-pixel */
"64 64 3 1 ",
"  c #078100",
". c #47FF00",
"X c #89FF82",
/* pixels */
"................................................................",
"................................................................",
"........................XX......................................",
"........................XX......................................",
"......................XX..XX....................................",
"......................XX..XX....................................",
"............  ..................................................",
"............  ..................................................",
"....  ....  ................................XX..XX..............",
"....  ....  ................................XX..XX..............",
"......  ..  ..................................XX................",
"......  ..  ..................................XX................",
"......  ........................................................",
"......  ........................................................",
"................................................................",
"................................................................",
"................................................................",
"................................................................",
"................................................................",
"................................................................",
"..........XX..XX....................................  ..........",
"..........XX..XX....................................  ..........",
"............XX..............................  ....  ............",
"............XX..............................  ....  ............",
"..............................................  ..  ............",
"..............................................  ..  ............",
"..............................................  ................",
"..............................................  ................",
"............................XX..XX..............................",
"............................XX..XX..............................",
"..............................XX................................",
"..............................XX................................",
"................................................................",
"................................................................",
"....................................................XX..........",
"....................................................XX..........",
"..................................................XX..XX........",
"..................................................XX..XX........",
"................................................................",
"................................................................",
"................  ..............................................",
"................  ..............................................",
"........  ....  ................................................",
"........  ....  ................................................",
"..........  ..  ................................................",
"..........  ..  ................................................",
"..........  ....................................................",
"..........  ....................................................",
"................................................................",
"................................................................",
"........................XX......................................",
"........................XX......................................",
"......................XX..XX....................................",
"......................XX..XX....................................",
"........................................  ......XX..XX..........",
"........................................  ......XX..XX..........",
"................................  ....  ..........XX............",
"................................  ....  ..........XX............",
"....XX..XX........................  ..  ........................",
"....XX..XX........................  ..  ........................",
"......XX..........................  ............................",
"......XX..........................  ............................",
"................................................................",
"................................................................"
};
