/* XPM */
static char *result[] = {
/* columns rows colors chars-per-pixel */
"64 64 8 1 ",
"  c black",
". c #EE9D4C",
"X c #5704AA",
"o c #7912E0",
"O c gray54",
"+ c #ECB986",
"@ c white",
"# c None",
/* pixels */
"################################################################",
"################################################################",
"############OOOOOOOOOOOOOOOOOOOOOOOOOOOOOOOOOOOOOO##############",
"############OOOOOOOOOOOOOOOOOOOOOOOOOOOOOOOOOOOOOO##############",
"############OOOOOOOOOOOOOOOOOOOOOOOOOOOOOOOOOOOOOO##############",
"############OOOOOOOOOOOOOOOOOOOOOOOOOOOOOOOOOOOOOO##############",
"############OOOOOOOOOOOOOOOOOOOOOOOOOOOOOOOOOOOOOO##############",
"############OOOOOOOOOOOOOOOOOOOOOOOOOOOOOOOOOOOOOO##############",
"############OOOOOOOOOOOOOOOOOOOOOOOOOOOOOOOOOOOOOO##############",
"############OOOOOOOOOOOOOOOOOOOOOOOOOOOOOOOOOOOOOO##############",
"############OOOOOOOOOOOOOOOOOOOOOOOOOOOOOOOOOOOOOO##############",
"############OOOOOOOOOOOOOOOOOOOOOOOOOOOOOOOOOOOOOO##############",
"############OOOOOOOOOOOOOOOOOOOOOOOOOOOOOOOOOOOOOO##############",
"############OOOOOOOOOOOOOOOOOOOOOOOOOOOOOOOOOOOOOO##############",
"############OOOOOOOO....++++++++++++++++++++++++++##############",
"############OOOOOOOO....++++++++++++++++++++++++++##############",
"############OOOOOOOO....++++++++++++++++++++++++++##############",
"############OOOOOOOO....+++++++                        #########",
"############OOOOOOOO....+++++++ @@@@@@ ++++++++ @@@@@@ #########",
"############OOOOOOOO....+++++++ @@@@@@ ++++++++ @@@@@@ #########",
"############OOOOOOOO....+++++++ @@@@@@ ++++++++ @@@@@@ #########",
"############OOOOOOOO....+++++++ @@@@@@ ++++++++ @@@@@@ #########",
"############............+++++++ @@@@@@ ++++++++ @@@@@@ #########",
"############............+++++++ @@@@@@ ++++++++ @@@@@@ #########",
"############............+++++++        ++++++++        #########",
"############............++++++++++++++++++++++++++##############",
"############............++++++++++++++++++++++++++##############",
"############............++++++++++++++++++++++++++##############",
"############............++++++++++++++++++++++++++##############",
"############............++++++++++++++++++++++++++##############",
"############............++++++++++++++++++++++++++##############",
"############............++++++++++++++++++++++++++##############",
"############XXXXXXXXXXXXoooooooooooooooooooooooooo##############",
"############XXXXXXXXXXXXoooooooooooooooooooooooooo##############",
"############XXXXXXXXXXXXoooooooooooooooooooooooooo##############",
"############XXXXXXXXXXXXoooooooooooooooooooooooooo##############",
"############XXXXXXXXXXXXoooooooooooooooooooooooooo##############",
"############XXXXXXXXXXXXoooooooooooooooooooooooooo##############",
"############XXXXXXXXXXXXoooooooooooooooooooooooooo##############",
"############XXXXXXXXXXXXoooooooooooooooooooooooooo##############",
"############XXXXXXXXXXXXoooooooooooooooooooooooooo##############",
"############XXXXXXXXXXXXoooooooooooooooooooooooooo##############",
"############XXXXXXXXXXXXoooooooooooooooooooooooooo##############",
"############XXXXXXXXXXXXoooooooooooooooooooooooooo##############",
"############XXXXXXXXXXXXoooooooooooooooooooooooooo##############",
"############XXXXXXXXXXXXoooooooooooooooooooooooooo##############",
"############XXXXXXXXXXXXoooooooooooooooooooooooooo##############",
"############XXXXXXXXXXXXoooooooooooooooooooooooooo##############",
"############XXXXXXXXXXXXoooooooooooooooooooooooooo##############",
"############XXXXXXXXXXXXoooooooooooooooooooooooooo##############",
"############XXXXXXXXXXXXoooooooooooooooooooooooooo##############",
"############XXXXXXXXXXXXoooooooooooooooooooooooooo##############",
"############XXXXXXXXXXXXoooooooooooooooooooooooooo##############",
"############XXXXXXXXXXXXoooooooooooooooooooooooooo##############",
"############XXXXXXXXXXXXoooooooooooooooooooooooooo##############",
"############XXXXXXXXXXXXoooooooooooooooooooooooooo##############",
"############++++++########################++++++################",
"############++++++########################++++++################",
"############++++++########################++++++################",
"############++++++########################++++++################",
"############      ########################      ################",
"############      ########################      ################",
"############      ########################      ################",
"################################################################"
};
