/* XPM */
static char *result[] = {
/* columns rows colors chars-per-pixel */
"64 64 8 1 ",
"  c #733400",
". c #297500",
"X c #2B7C00",
"o c #F00504",
"O c #975200",
"+ c #3CAA01",
"@ c #59FF00",
"# c None",
/* pixels */
"XXXXXXXXXXXXXXXXXXXXXXXXXXXXXXXXXXXXXXXXooooXXXXXXXXXXXXXXXXXXXX",
"X+++++++++++@@@@++++++++++++++++++++++++oooo+++++++++++++++++++X",
"X+++++++++++++....oooo++++++++@@@@@@++++oooo++++++++++........+X",
"X+++++++++++++....oooo++++++++@@@@@@++++oooo++++++++++........+X",
"X+++++++++++++++++oooo+++++++++++++++++++++++++++++++++++++++++X",
"X+++++++++++++++++oooo+++++++++++++++++++++++++++++++++++++++++X",
"X+++@@@@@@++++++++++++++++++++++++++++++@@@@++++@@@@@@@@+++++++X",
"X+++@@@@@@++++++++++++++++++++++++++++++@@@@++++@@@@@@@@+++++++X",
"X+++++++++++++++++++++++++++++++++++++....++++++++++oooo+++++++X",
"X+++++++++++++++++++++++++++++++++++++....++++++++++oooo+++++++X",
"X+++++++++++++++++@@@@++++++++++++++++++++++++++++++oooo+++++++X",
"X+++++++++++++++++@@@@++++++++++++++++++++++++++++++oooo+++++++X",
"X+++++++++++++++++++++++++++++++++++@@@@@@@@+++++++++++++++++++X",
"X+++++++++++++++++++++++++++++++++++@@@@@@@@+++++++++++++++++++X",
"X+++++oooo....++++++++++++++++++++oooo+++++++++++++++++++++++++X",
"X+++++oooo....++++++++++++++++++++oooo+++++++++++++++++++++++++X",
"X+++++oooo++++++++++++++++++++++++oooo++++++++++++++......+++++X",
"X+++++oooo++++++++++++++++++++++++oooo++++++++++++++......+++++X",
"X+++++++++++++++@@@@@@++++++++++++++++++++++++++++@@@@+++++++++X",
"X+++++++++++++++@@@@@@++++++++++++++++++++++++++++@@@@+++++++++X",
"X+++++++++++++++++++++++++++++++++++++++++++++++++++++++++oooo+X",
"XXXXXXXXXXXXXXXXXXXXXXXXXXXXXXXXXXXXXXXXXXXXXXXXXXXXXXXXXXooooXX",
"######OO##OO##OO##  OO  ######  ####  ####OO####  ##OO####oooo##",
"######OO##OO##OO##  OO  ######  ####  ####OO####  ##OO####oooo##",
"######OOOOOOOOOO##  OO  ######  ####  ####OO####  ##OO##########",
"######OOOOOOOOOO##  OO  ######  ####  ####OO####  ##OO##########",
"##########OO        OO                    OO      ##OO##########",
"##########OO        OO                    OO      ##OO##########",
"##########OOOOOOOOOOOOOOOOOOOOOOOOOOOOOOOOOOOOOOOOOOOO##########",
"##########OOOOOOOOOOOOOOOOOOOOOOOOOOOOOOOOOOOOOOOOOOOO##########",
"########################OOOOOOOOOOOOOOOOOOOOOOOOOOOOOO##########",
"########################OOOOOOOOOOOOOOOOOOOOOOOOOOOOOO##########",
"########################OOOO  OOOOOO    OO######################",
"########################OOOO  OOOOOO    OO######################",
"########################OOOO  OOOOOO    ########################",
"########################OOOO  OOOOOO    ########################",
"########################OOOO  OOOOOO    ########################",
"########################OOOO  OOOOOO    ########################",
"########################OOOO  OOOOOO    ########################",
"########################OOOO  OOOOOO    ########################",
"########################OOOO  OOOOOO    ########################",
"########################OOOO  OOOOOO    ########################",
"########################OOOO  OOOOOO    ########################",
"########################OOOO  OOOOOO    ########################",
"########################OOOO  OOOOOO    ########################",
"########################OOOO  OOOOOO    ########################",
"########################OOOO  OOOOOO    ########################",
"########################OOOO  OOOOOO    ########################",
"########################OOOO  OOOOOO    ########################",
"########################OOOO  OOOOOO    ########################",
"########################OOOO  OOOOOO    ########################",
"########################OOOO  OOOOOO    ########################",
"########################OOOO  OOOOOO    ########################",
"########################OOOO  OOOOOO    ########################",
"########################OOOO  OOOOOO    ########################",
"########################OOOO  OOOOOO    ########################",
"########################OOOO  OOOOOO    ########################",
"########################OOOO  OOOOOO    ########################",
"########################OOOO  OOOOOO    ########################",
"########################OOOO  OOOOOO    ########################",
"######################OOOO    OOOOOO      ######################",
"######################OOOO    OOOOOO      ######################",
"####################OOOO      OOOOOO        ####################",
"####################OOOO      OOOOOO        ####################"
};
