/* XPM */
static char *result[] = {
/* columns rows colors chars-per-pixel */
"64 64 7 1 ",
"  c #733400",
". c #297500",
"X c #2B7C00",
"o c #F00504",
"O c #975200",
"+ c #59FF00",
"@ c None",
/* pixels */
"XXXXXXXXXXXX++++XXXXXXXXXXXXXXXXXXXXXXXXooooXXXXXXXXXXXXXXXXXXXX",
"XXXXXXXXXXXX++++XXXXXXXXXXXXXXXXXXXXXXXXooooXXXXXXXXXXXXXXXXXXXX",
"XXXXXXXXXXXXXX....ooooXXXXXXXX++++++XXXXooooXXXXXXXXXX........XX",
"XXXXXXXXXXXXXX....ooooXXXXXXXX++++++XXXXooooXXXXXXXXXX........XX",
"XXXXXXXXXXXXXXXXXXooooXXXXXXXXXXXXXXXXXXXXXXXXXXXXXXXXXXXXXXXXXX",
"XXXXXXXXXXXXXXXXXXooooXXXXXXXXXXXXXXXXXXXXXXXXXXXXXXXXXXXXXXXXXX",
"XXXX++++++XXXXXXXXXXXXXXXXXXXXXXXXXXXXXX++++XXXX++++++++XXXXXXXX",
"XXXX++++++XXXXXXXXXXXXXXXXXXXXXXXXXXXXXX++++XXXX++++++++XXXXXXXX",
"XXXXXXXXXXXXXXXXXXXXXXXXXXXXXXXXXXXXXX....XXXXXXXXXXooooXXXXXXXX",
"XXXXXXXXXXXXXXXXXXXXXXXXXXXXXXXXXXXXXX....XXXXXXXXXXooooXXXXXXXX",
"XXXXXXXXXXXXXXXXXX++++XXXXXXXXXXXXXXXXXXXXXXXXXXXXXXooooXXXXXXXX",
"XXXXXXXXXXXXXXXXXX++++XXXXXXXXXXXXXXXXXXXXXXXXXXXXXXooooXXXXXXXX",
"XXXXXXXXXXXXXXXXXXXXXXXXXXXXXXXXXXXX++++++++XXXXXXXXXXXXXXXXXXXX",
"XXXXXXXXXXXXXXXXXXXXXXXXXXXXXXXXXXXX++++++++XXXXXXXXXXXXXXXXXXXX",
"XXXXXXoooo....XXXXXXXXXXXXXXXXXXXXooooXXXXXXXXXXXXXXXXXXXXXXXXXX",
"XXXXXXoooo....XXXXXXXXXXXXXXXXXXXXooooXXXXXXXXXXXXXXXXXXXXXXXXXX",
"XXXXXXooooXXXXXXXXXXXXXXXXXXXXXXXXooooXXXXXXXXXXXXXX......XXXXXX",
"XXXXXXooooXXXXXXXXXXXXXXXXXXXXXXXXooooXXXXXXXXXXXXXX......XXXXXX",
"XXXXXXXXXXXXXXXX++++++XXXXXXXXXXXXXXXXXXXXXXXXXXXX++++XXXXXXXXXX",
"XXXXXXXXXXXXXXXX++++++XXXXXXXXXXXXXXXXXXXXXXXXXXXX++++XXXXXXXXXX",
"XXXXXXXXXXXXXXXXXXXXXXXXXXXXXXXXXXXXXXXXXXXXXXXXXXXXXXXXXXooooXX",
"XXXXXXXXXXXXXXXXXXXXXXXXXXXXXXXXXXXXXXXXXXXXXXXXXXXXXXXXXXooooXX",
"@@@@@@OO@@OO@@OO@@  OO  @@@@@@  @@@@  @@@@OO@@@@  @@OO@@@@oooo@@",
"@@@@@@OO@@OO@@OO@@  OO  @@@@@@  @@@@  @@@@OO@@@@  @@OO@@@@oooo@@",
"@@@@@@OOOOOOOOOO@@  OO  @@@@@@  @@@@  @@@@OO@@@@  @@OO@@@@@@@@@@",
"@@@@@@OOOOOOOOOO@@  OO  @@@@@@  @@@@  @@@@OO@@@@  @@OO@@@@@@@@@@",
"@@@@@@@@@@OO        OO                    OO      @@OO@@@@@@@@@@",
"@@@@@@@@@@OO        OO                    OO      @@OO@@@@@@@@@@",
"@@@@@@@@@@OOOOOOOOOOOOOOOOOOOOOOOOOOOOOOOOOOOOOOOOOOOO@@@@@@@@@@",
"@@@@@@@@@@OOOOOOOOOOOOOOOOOOOOOOOOOOOOOOOOOOOOOOOOOOOO@@@@@@@@@@",
"@@@@@@@@@@@@@@@@@@@@@@@@OOOOOOOOOOOOOOOOOOOOOOOOOOOOOO@@@@@@@@@@",
"@@@@@@@@@@@@@@@@@@@@@@@@OOOOOOOOOOOOOOOOOOOOOOOOOOOOOO@@@@@@@@@@",
"@@@@@@@@@@@@@@@@@@@@@@@@OOOO  OOOOOO    OO@@@@@@@@@@@@@@@@@@@@@@",
"@@@@@@@@@@@@@@@@@@@@@@@@OOOO  OOOOOO    OO@@@@@@@@@@@@@@@@@@@@@@",
"@@@@@@@@@@@@@@@@@@@@@@@@OOOO  OOOOOO    @@@@@@@@@@@@@@@@@@@@@@@@",
"@@@@@@@@@@@@@@@@@@@@@@@@OOOO  OOOOOO    @@@@@@@@@@@@@@@@@@@@@@@@",
"@@@@@@@@@@@@@@@@@@@@@@@@OOOO  OOOOOO    @@@@@@@@@@@@@@@@@@@@@@@@",
"@@@@@@@@@@@@@@@@@@@@@@@@OOOO  OOOOOO    @@@@@@@@@@@@@@@@@@@@@@@@",
"@@@@@@@@@@@@@@@@@@@@@@@@OOOO  OOOOOO    @@@@@@@@@@@@@@@@@@@@@@@@",
"@@@@@@@@@@@@@@@@@@@@@@@@OOOO  OOOOOO    @@@@@@@@@@@@@@@@@@@@@@@@",
"@@@@@@@@@@@@@@@@@@@@@@@@OOOO  OOOOOO    @@@@@@@@@@@@@@@@@@@@@@@@",
"@@@@@@@@@@@@@@@@@@@@@@@@OOOO  OOOOOO    @@@@@@@@@@@@@@@@@@@@@@@@",
"@@@@@@@@@@@@@@@@@@@@@@@@OOOO  OOOOOO    @@@@@@@@@@@@@@@@@@@@@@@@",
"@@@@@@@@@@@@@@@@@@@@@@@@OOOO  OOOOOO    @@@@@@@@@@@@@@@@@@@@@@@@",
"@@@@@@@@@@@@@@@@@@@@@@@@OOOO  OOOOOO    @@@@@@@@@@@@@@@@@@@@@@@@",
"@@@@@@@@@@@@@@@@@@@@@@@@OOOO  OOOOOO    @@@@@@@@@@@@@@@@@@@@@@@@",
"@@@@@@@@@@@@@@@@@@@@@@@@OOOO  OOOOOO    @@@@@@@@@@@@@@@@@@@@@@@@",
"@@@@@@@@@@@@@@@@@@@@@@@@OOOO  OOOOOO    @@@@@@@@@@@@@@@@@@@@@@@@",
"@@@@@@@@@@@@@@@@@@@@@@@@OOOO  OOOOOO    @@@@@@@@@@@@@@@@@@@@@@@@",
"@@@@@@@@@@@@@@@@@@@@@@@@OOOO  OOOOOO    @@@@@@@@@@@@@@@@@@@@@@@@",
"@@@@@@@@@@@@@@@@@@@@@@@@OOOO  OOOOOO    @@@@@@@@@@@@@@@@@@@@@@@@",
"@@@@@@@@@@@@@@@@@@@@@@@@OOOO  OOOOOO    @@@@@@@@@@@@@@@@@@@@@@@@",
"@@@@@@@@@@@@@@@@@@@@@@@@OOOO  OOOOOO    @@@@@@@@@@@@@@@@@@@@@@@@",
"@@@@@@@@@@@@@@@@@@@@@@@@OOOO  OOOOOO    @@@@@@@@@@@@@@@@@@@@@@@@",
"@@@@@@@@@@@@@@@@@@@@@@@@OOOO  OOOOOO    @@@@@@@@@@@@@@@@@@@@@@@@",
"@@@@@@@@@@@@@@@@@@@@@@@@OOOO  OOOOOO    @@@@@@@@@@@@@@@@@@@@@@@@",
"@@@@@@@@@@@@@@@@@@@@@@@@OOOO  OOOOOO    @@@@@@@@@@@@@@@@@@@@@@@@",
"@@@@@@@@@@@@@@@@@@@@@@@@OOOO  OOOOOO    @@@@@@@@@@@@@@@@@@@@@@@@",
"@@@@@@@@@@@@@@@@@@@@@@@@OOOO  OOOOOO    @@@@@@@@@@@@@@@@@@@@@@@@",
"@@@@@@@@@@@@@@@@@@@@@@@@OOOO  OOOOOO    @@@@@@@@@@@@@@@@@@@@@@@@",
"@@@@@@@@@@@@@@@@@@@@@@OOOO    OOOOOO      @@@@@@@@@@@@@@@@@@@@@@",
"@@@@@@@@@@@@@@@@@@@@@@OOOO    OOOOOO      @@@@@@@@@@@@@@@@@@@@@@",
"@@@@@@@@@@@@@@@@@@@@OOOO      OOOOOO        @@@@@@@@@@@@@@@@@@@@",
"@@@@@@@@@@@@@@@@@@@@OOOO      OOOOOO        @@@@@@@@@@@@@@@@@@@@"
};
